# xmcd
#
# Track frame offsets:
#	150
#	12656
#	25073
#	38692
#	50700
#	64568
#	76700
#	89089
#	103634
#	117503
#	133009
#	148288
#
# Disc length: 2216 seconds
#
# Revision: 1
# Processed by: cddbd v1.5.2PL0 Copyright (c) Steve Scherf et al.
# Submitted via: audiograbber 1.83.01
#
DISCID=a608a60c
DTITLE=Four Tops - Icon
DYEAR=2011
DGENRE=Motown
TTITLE0=Baby I Need Your Loving
TTITLE1=I Can't Help Myself (Sugar Pie, Honey Bunch)
TTITLE2=Reach Out I'll Be There
TTITLE3=Standing In The Shadows Of Love
TTITLE4=Bernadette
TTITLE5=Shake Me, Wake Me (When It's Over)
TTITLE6=Walk Away Renee
TTITLE7=Still Water (Love)
TTITLE8=Ain't No Woman (Like The One I've Got)
TTITLE9=Are You Man Enough
TTITLE10=When She Was My Girl
TTITLE11=I Believe In You And Me
EXTD=
EXTT0=
EXTT1=
EXTT2=
EXTT3=
EXTT4=
EXTT5=
EXTT6=
EXTT7=
EXTT8=
EXTT9=
EXTT10=
EXTT11=
PLAYORDER=
